<svg width="420" height="200" viewBox="0 0 420 200" xmlns="http://www.w3.org/2000/svg" role="img" aria-label="Pipilika — first Bangla search engine">
  <defs>
    <linearGradient id="border" x1="0" y1="0" x2="420" y2="200" gradientUnits="userSpaceOnUse">
      <stop stop-color="#1f6feb"/>
      <stop offset="1" stop-color="#58a6ff" stop-opacity="0.35"/>
    </linearGradient>
    <clipPath id="round">
      <rect x="1" y="1" width="418" height="198" rx="14"/>
    </clipPath>
  </defs>
  <g font-family="system-ui, -apple-system, 'Segoe UI', sans-serif">
    <animate attributeName="opacity" from="0" to="1" dur="0.8s" fill="freeze"/>
    <rect x="1" y="1" width="418" height="198" rx="14" fill="#0d1117" stroke="url(#border)" stroke-width="1.5"/>
    <g clip-path="url(#round)">
      <circle cx="420" cy="0" r="130" fill="#1f6feb" opacity="0.08"/>
    </g>
    <text x="24" y="42" font-size="22" font-weight="700" fill="#e6edf3">Pipilika</text>
    <text x="24" y="66" font-size="13" font-style="italic" fill="#58a6ff">First Bangla search engine</text>
    <text x="24" y="94" font-size="12" fill="#8b949e">Distributed crawler and custom Bangla parser (~80% accuracy).</text>
    <text x="24" y="112" font-size="12" fill="#8b949e">Launched 2013 — national media attention, research platform.</text>
    <g font-size="11" text-anchor="middle">
      <rect x="24" y="148" width="42" height="24" rx="12" fill="#1f6feb" fill-opacity="0.13" stroke="#1f6feb" stroke-opacity="0.35"/>
      <text x="45" y="164" fill="#79c0ff">Java</text>
      <rect x="74" y="148" width="54" height="24" rx="12" fill="#1f6feb" fill-opacity="0.13" stroke="#1f6feb" stroke-opacity="0.35"/>
      <text x="101" y="164" fill="#79c0ff">Lucene</text>
      <rect x="136" y="148" width="54" height="24" rx="12" fill="#1f6feb" fill-opacity="0.13" stroke="#1f6feb" stroke-opacity="0.35"/>
      <text x="163" y="164" fill="#79c0ff">Hadoop</text>
      <rect x="198" y="148" width="36" height="24" rx="12" fill="#1f6feb" fill-opacity="0.13" stroke="#1f6feb" stroke-opacity="0.35"/>
      <text x="216" y="164" fill="#79c0ff">NLP</text>
      <rect x="242" y="148" width="54" height="24" rx="12" fill="#1f6feb" fill-opacity="0.13" stroke="#1f6feb" stroke-opacity="0.35"/>
      <text x="269" y="164" fill="#79c0ff">Search</text>
    </g>
  </g>
</svg>
